<svg width="25" height="25" viewBox="0 0 25 25" fill="none" xmlns="http://www.w3.org/2000/svg">
<path d="M15 16.25C15.3542 16.25 15.6615 16.1198 15.9219 15.8594C16.1823 15.599 16.3125 15.2917 16.3125 14.9375C16.3125 14.5833 16.1823 14.276 15.9219 14.0156C15.6615 13.7552 15.3542 13.625 15 13.625C14.6458 13.625 14.3385 13.7552 14.0781 14.0156C13.8177 14.276 13.6875 14.5833 13.6875 14.9375C13.6875 15.2917 13.8177 15.599 14.0781 15.8594C14.3385 16.1198 14.6458 16.25 15 16.25ZM14.0625 12.25H15.9375C15.9375 11.6458 16 11.2031 16.125 10.9219C16.25 10.6406 16.5417 10.2708 17 9.8125C17.625 9.1875 18.0417 8.68229 18.25 8.29688C18.4583 7.91146 18.5625 7.45833 18.5625 6.9375C18.5625 6 18.2344 5.23438 17.5781 4.64062C16.9219 4.04688 16.0625 3.75 15 3.75C14.1458 3.75 13.401 3.98958 12.7656 4.46875C12.1302 4.94792 11.6875 5.58333 11.4375 6.375L13.125 7.0625C13.3125 6.54167 13.5677 6.15104 13.8906 5.89062C14.2135 5.63021 14.5833 5.5 15 5.5C15.5 5.5 15.9062 5.64062 16.2188 5.92188C16.5312 6.20312 16.6875 6.58333 16.6875 7.0625C16.6875 7.35417 16.6042 7.63021 16.4375 7.89062C16.2708 8.15104 15.9792 8.47917 15.5625 8.875C14.875 9.47917 14.4531 9.95312 14.2969 10.2969C14.1406 10.6406 14.0625 11.2917 14.0625 12.25ZM7.5 20C6.8125 20 6.22396 19.7552 5.73438 19.2656C5.24479 18.776 5 18.1875 5 17.5V2.5C5 1.8125 5.24479 1.22396 5.73438 0.734375C6.22396 0.244792 6.8125 0 7.5 0H22.5C23.1875 0 23.776 0.244792 24.2656 0.734375C24.7552 1.22396 25 1.8125 25 2.5V17.5C25 18.1875 24.7552 18.776 24.2656 19.2656C23.776 19.7552 23.1875 20 22.5 20H7.5ZM7.5 17.5H22.5V2.5H7.5V17.5ZM2.5 25C1.8125 25 1.22396 24.7552 0.734375 24.2656C0.244792 23.776 0 23.1875 0 22.5V5H2.5V22.5H20V25H2.5ZM7.5 2.5V17.5V2.5Z" fill="#5A682F"/>
</svg>
